<svg width="14" height="13" viewBox="0 0 14 13" fill="none" xmlns="http://www.w3.org/2000/svg">
<g id="basic / calendar">
<path id="coolicon" d="M11.0833 11.416H2.91667C2.27233 11.416 1.75 10.9514 1.75 10.3782V3.11367C1.75 2.54051 2.27233 2.07588 2.91667 2.07588H4.08333V1.03809H5.25V2.07588H8.75V1.03809H9.91667V2.07588H11.0833C11.7277 2.07588 12.25 2.54051 12.25 3.11367V10.3782C12.25 10.9514 11.7277 11.416 11.0833 11.416ZM2.91667 5.18925V10.3782H11.0833V5.18925H2.91667ZM2.91667 3.11367V4.15146H11.0833V3.11367H2.91667ZM9.91667 9.34041H8.75V8.30262H9.91667V9.34041ZM7.58333 9.34041H6.41667V8.30262H7.58333V9.34041ZM5.25 9.34041H4.08333V8.30262H5.25V9.34041ZM9.91667 7.26483H8.75V6.22704H9.91667V7.26483ZM7.58333 7.26483H6.41667V6.22704H7.58333V7.26483ZM5.25 7.26483H4.08333V6.22704H5.25V7.26483Z" fill="#182233"/>
</g>
</svg>
