<svg width="14" height="14" viewBox="0 0 14 14" fill="none" xmlns="http://www.w3.org/2000/svg">
<g id="Group 9199">
<path id="Vector" d="M8.53059 5.20577C8.88852 5.56155 9.47094 5.56157 9.82887 5.20577C10.0022 5.0334 10.0977 4.80426 10.0977 4.56051C10.0977 4.31677 10.0022 4.08762 9.82887 3.91528C9.64991 3.73738 9.41482 3.64844 9.17973 3.64844C8.94466 3.64844 8.70957 3.73738 8.53061 3.91528C8.35723 4.08762 8.26172 4.31677 8.26172 4.56051C8.26172 4.80426 8.35721 5.03342 8.53059 5.20577Z" fill="#121212"/>
<path id="Vector_2" d="M3.50271 3.65332L2.30973 3.74386C1.97777 3.76907 1.68212 3.93998 1.49854 4.21278L0.122699 6.257C-0.0165334 6.46387 -0.0386675 6.72277 0.0634506 6.94956C0.165596 7.17636 0.375507 7.3344 0.624952 7.37237L1.71727 7.53856C1.97279 6.20643 2.58448 4.87757 3.50271 3.65332Z" fill="#CC8700"/>
<path id="Vector_3" d="M6.09595 11.8399L6.26514 12.913C6.30379 13.1581 6.46467 13.3643 6.6955 13.4646C6.79154 13.5063 6.89321 13.5269 6.99436 13.5269C7.13644 13.5269 7.27753 13.4863 7.40051 13.4064L9.48144 12.0548C9.75913 11.8744 9.93311 11.584 9.95871 11.2579L10.0509 10.0859C8.80464 10.988 7.45199 11.5889 6.09595 11.8399Z" fill="#CC8700"/>
<path id="Vector_4" d="M5.68589 11.0967C5.72381 11.0967 5.76194 11.0936 5.8 11.0874C6.36812 10.9941 6.91569 10.8369 7.43803 10.6311L2.94854 6.2207C2.73909 6.73382 2.57907 7.27174 2.48408 7.82988C2.44664 8.04989 2.52176 8.27401 2.68229 8.43175L5.18734 10.8927C5.32063 11.0236 5.50053 11.0967 5.68589 11.0967Z" fill="#CC8700"/>
<path id="Vector_5" d="M12.6721 5.99757C13.7707 3.91103 13.8114 1.70606 13.7539 0.671957C13.7343 0.317629 13.4467 0.0351395 13.086 0.015826C12.9146 0.00663159 12.7115 0 12.4825 0C11.3055 0 9.443 0.175143 7.6649 1.07865C6.25181 1.79668 4.39887 3.37772 3.30566 5.4555C3.31857 5.46541 3.33119 5.47592 3.34307 5.4876L8.18407 10.2433C8.19596 10.255 8.20663 10.2674 8.21672 10.28C10.3318 9.20607 11.9411 7.38577 12.6721 5.99757ZM8.00641 2.85977C8.79283 2.08721 10.0725 2.08713 10.859 2.85977C11.2399 3.23402 11.4498 3.73166 11.4498 4.26094C11.4498 4.79023 11.2399 5.28786 10.859 5.66211C10.4658 6.04835 9.94915 6.24151 9.4327 6.24157C8.91608 6.24159 8.39968 6.04846 8.00641 5.66211C7.62542 5.28786 7.41559 4.79023 7.41559 4.26094C7.41559 3.73166 7.62542 3.23402 8.00641 2.85977Z" fill="#121212"/>
<path id="Vector_6" d="M0.411245 11.1481C0.514494 11.1481 0.617742 11.1094 0.69649 11.032L2.0136 9.73807C2.17115 9.5833 2.17115 9.33238 2.0136 9.1776C1.85608 9.02283 1.60063 9.02283 1.44309 9.1776L0.125974 10.4715C-0.0315747 10.6263 -0.0315747 10.8772 0.125974 11.032C0.204748 11.1094 0.307997 11.1481 0.411245 11.1481Z" fill="#CC8700"/>
<path id="Vector_7" d="M3.22094 10.3632C3.06342 10.2084 2.80797 10.2084 2.65043 10.3632L0.118162 12.8508C-0.0393872 13.0056 -0.0393872 13.2565 0.118162 13.4113C0.196936 13.4887 0.300184 13.5273 0.403433 13.5273C0.506681 13.5273 0.60993 13.4887 0.688677 13.4112L3.22091 10.9236C3.37849 10.7688 3.37849 10.5179 3.22094 10.3632Z" fill="#CC8700"/>
<path id="Vector_8" d="M3.85718 11.5497L2.5401 12.8436C2.38255 12.9984 2.38255 13.2493 2.5401 13.404C2.61887 13.4814 2.72212 13.5201 2.82534 13.5201C2.92856 13.5201 3.03184 13.4815 3.11059 13.404L4.4277 12.1101C4.58525 11.9554 4.58525 11.7044 4.4277 11.5497C4.27017 11.3949 4.01473 11.3949 3.85718 11.5497Z" fill="#CC8700"/>
</g>
</svg>
