<svg width="65" height="49" viewBox="0 0 65 49" fill="none" xmlns="http://www.w3.org/2000/svg">
<path d="M58.9507 48.3486H6.95068C3.57568 48.3486 0.950684 45.7236 0.950684 42.3486V6.34863C0.950684 3.09863 3.57568 0.348633 6.95068 0.348633H58.9507C62.2007 0.348633 64.9507 3.09863 64.9507 6.34863V42.3486C64.9507 45.7236 62.2007 48.3486 58.9507 48.3486ZM14.9507 7.34863C11.0757 7.34863 7.95068 10.5986 7.95068 14.3486C7.95068 18.2236 11.0757 21.3486 14.9507 21.3486C18.7007 21.3486 21.9507 18.2236 21.9507 14.3486C21.9507 10.5986 18.7007 7.34863 14.9507 7.34863ZM8.95068 40.3486H56.9507V26.3486L45.9507 15.4736C45.3257 14.8486 44.4507 14.8486 43.8257 15.4736L26.9507 32.3486L19.9507 25.4736C19.3257 24.8486 18.4507 24.8486 17.8257 25.4736L8.95068 34.3486V40.3486Z" fill="black"/>
</svg>
