<svg width="20" height="20" viewBox="0 0 20 20" fill="none" xmlns="http://www.w3.org/2000/svg">
<g id="coding (1) 1">
<g id="Group">
<path id="Vector" d="M14.0625 0.3125H5.9375C5.60611 0.312934 5.28842 0.44477 5.0541 0.679096C4.81977 0.913422 4.68793 1.23111 4.6875 1.5625V18.4375C4.68793 18.7689 4.81977 19.0866 5.0541 19.3209C5.28842 19.5552 5.60611 19.6871 5.9375 19.6875H14.0625C14.3939 19.6871 14.7116 19.5552 14.9459 19.3209C15.1802 19.0866 15.3121 18.7689 15.3125 18.4375V1.5625C15.3121 1.23111 15.1802 0.913422 14.9459 0.679096C14.7116 0.44477 14.3939 0.312934 14.0625 0.3125ZM11.4625 0.9375L11.2867 1.5625H8.68164L8.52539 0.9375H11.4625ZM14.6875 18.4375C14.6873 18.6032 14.6214 18.762 14.5042 18.8792C14.387 18.9964 14.2282 19.0623 14.0625 19.0625H5.9375C5.77181 19.0623 5.61296 18.9964 5.4958 18.8792C5.37863 18.762 5.31272 18.6032 5.3125 18.4375V1.5625C5.31272 1.39681 5.37863 1.23796 5.4958 1.1208C5.61296 1.00363 5.77181 0.937717 5.9375 0.9375H7.88086L8.13438 1.95078C8.15127 2.01839 8.19028 2.07841 8.24521 2.1213C8.30013 2.16419 8.36781 2.18749 8.4375 2.1875H11.5234C11.5915 2.1875 11.6578 2.16525 11.7121 2.12414C11.7664 2.08303 11.8057 2.02531 11.8242 1.95977L12.1117 0.9375H14.0625C14.2282 0.937717 14.387 1.00363 14.5042 1.1208C14.6214 1.23796 14.6873 1.39681 14.6875 1.5625V18.4375Z" fill="#CC8700"/>
<path id="Vector_2" d="M8.4375 17.8125H6.25C6.16712 17.8125 6.08763 17.8454 6.02903 17.904C5.97042 17.9626 5.9375 18.0421 5.9375 18.125C5.9375 18.2079 5.97042 18.2874 6.02903 18.346C6.08763 18.4046 6.16712 18.4375 6.25 18.4375H8.4375C8.52038 18.4375 8.59987 18.4046 8.65847 18.346C8.71708 18.2874 8.75 18.2079 8.75 18.125C8.75 18.0421 8.71708 17.9626 8.65847 17.904C8.59987 17.8454 8.52038 17.8125 8.4375 17.8125Z" fill="#CC8700"/>
<path id="Vector_3" d="M9.6875 17.8125H9.375C9.29212 17.8125 9.21263 17.8454 9.15403 17.904C9.09542 17.9626 9.0625 18.0421 9.0625 18.125C9.0625 18.2079 9.09542 18.2874 9.15403 18.346C9.21263 18.4046 9.29212 18.4375 9.375 18.4375H9.6875C9.77038 18.4375 9.84987 18.4046 9.90847 18.346C9.96708 18.2874 10 18.2079 10 18.125C10 18.0421 9.96708 17.9626 9.90847 17.904C9.84987 17.8454 9.77038 17.8125 9.6875 17.8125Z" fill="#CC8700"/>
<path id="Vector_4" d="M11.0983 8.16953C11.0631 8.14842 11.0241 8.13444 10.9835 8.1284C10.9429 8.12236 10.9015 8.12438 10.8617 8.13433C10.8219 8.14428 10.7844 8.16198 10.7515 8.18641C10.7185 8.21084 10.6907 8.24153 10.6695 8.27672L8.79453 11.4017C8.75189 11.4728 8.73923 11.5579 8.75933 11.6383C8.77943 11.7187 8.83065 11.7878 8.90172 11.8305C8.97279 11.8731 9.05789 11.8858 9.1383 11.8657C9.2187 11.8456 9.28783 11.7944 9.33047 11.7233L11.2055 8.59829C11.2266 8.5631 11.2406 8.52409 11.2466 8.4835C11.2526 8.44291 11.2506 8.40152 11.2407 8.36171C11.2307 8.3219 11.213 8.28443 11.1886 8.25146C11.1642 8.21849 11.1335 8.19065 11.0983 8.16953Z" fill="#CC8700"/>
<path id="Vector_5" d="M12.119 8.24225C12.0934 8.2102 12.0617 8.18352 12.0257 8.16373C11.9897 8.14394 11.9502 8.13143 11.9094 8.1269C11.8271 8.11777 11.7444 8.14174 11.6797 8.19354C11.615 8.24534 11.5735 8.32073 11.5643 8.40312C11.5552 8.48551 11.5792 8.56816 11.631 8.63287L12.7247 10.0001L11.631 11.3672C11.5792 11.432 11.5552 11.5146 11.5643 11.597C11.5735 11.6794 11.615 11.7548 11.6797 11.8066C11.7444 11.8584 11.8271 11.8824 11.9094 11.8732C11.9918 11.8641 12.0672 11.8226 12.119 11.7579L13.369 10.1954C13.4134 10.1399 13.4376 10.0711 13.4376 10.0001C13.4376 9.92906 13.4134 9.86018 13.369 9.80475L12.119 8.24225Z" fill="#CC8700"/>
<path id="Vector_6" d="M7.88099 11.7579C7.93279 11.8226 8.00818 11.8641 8.09057 11.8732C8.17296 11.8824 8.25561 11.8584 8.32033 11.8066C8.38505 11.7548 8.42654 11.6794 8.43567 11.597C8.44481 11.5146 8.42084 11.432 8.36904 11.3672L7.27529 10.0001L8.36904 8.63287C8.39469 8.60083 8.41377 8.56404 8.42521 8.52462C8.43664 8.4852 8.4402 8.44391 8.43567 8.40312C8.43115 8.36232 8.41864 8.32282 8.39885 8.28686C8.37906 8.2509 8.35238 8.21919 8.32033 8.19354C8.28828 8.16789 8.2515 8.1488 8.21208 8.13737C8.17266 8.12594 8.13137 8.12238 8.09057 8.1269C8.04978 8.13143 8.01027 8.14394 7.97431 8.16373C7.93835 8.18352 7.90664 8.2102 7.88099 8.24225L6.63099 9.80475C6.58662 9.86017 6.56244 9.92906 6.56244 10.0001C6.56244 10.0711 6.58662 10.1399 6.63099 10.1954L7.88099 11.7579Z" fill="#CC8700"/>
</g>
</g>
</svg>
