<svg width="15" height="15" viewBox="0 0 15 15" fill="none" xmlns="http://www.w3.org/2000/svg">
<g id="Icon/twitter">
<path id="Vector" d="M13.5229 2.44119C12.8979 2.74744 12.2854 2.87182 11.6479 3.05994C10.9473 2.26932 9.90857 2.22557 8.91045 2.59932C7.91232 2.97307 7.25857 3.88682 7.27295 4.93494V5.55994C5.24482 5.61182 3.43857 4.68807 2.27295 3.05994C2.27295 3.05994 -0.340801 7.70557 4.77295 9.93494C3.60295 10.7143 2.43607 11.2399 1.02295 11.1849C3.09045 12.3118 5.34357 12.6993 7.2942 12.1331C9.5317 11.4831 11.3704 9.80619 12.0761 7.29432C12.2866 6.53036 12.3911 5.74111 12.3867 4.9487C12.3854 4.79307 13.3304 3.21619 13.5229 2.44057V2.44119Z" stroke="#576974" stroke-width="1.125" stroke-linecap="round" stroke-linejoin="round"/>
</g>
</svg>
