<svg xmlns="http://www.w3.org/2000/svg" width="31" height="31" viewBox="0 0 31 31" fill="none">
  <g clip-path="url(#clip0_203_12747)">
    <path d="M2.90625 2.42188H3.875V3.39062H2.90625V2.42188Z" fill="#CC8700"/>
    <path d="M4.84375 2.42188H5.8125V3.39062H4.84375V2.42188Z" fill="#CC8700"/>
    <path d="M6.78125 2.42188H7.75V3.39062H6.78125V2.42188Z" fill="#CC8700"/>
    <path d="M3.39062 14.5312H14.0469C14.1753 14.5312 14.2985 14.4802 14.3894 14.3894C14.4802 14.2985 14.5312 14.1753 14.5312 14.0469V6.29688C14.5312 6.16841 14.4802 6.04521 14.3894 5.95437C14.2985 5.86353 14.1753 5.8125 14.0469 5.8125H3.39062C3.26216 5.8125 3.13896 5.86353 3.04812 5.95437C2.95728 6.04521 2.90625 6.16841 2.90625 6.29688V14.0469C2.90625 14.1753 2.95728 14.2985 3.04812 14.3894C3.13896 14.4802 3.26216 14.5312 3.39062 14.5312ZM3.875 6.78125H13.5625V13.5625H3.875V6.78125Z" fill="#CC8700"/>
    <path d="M3.39062 23.7344H14.0469C14.1753 23.7344 14.2985 23.6833 14.3894 23.5925C14.4802 23.5017 14.5312 23.3785 14.5312 23.25V15.9844C14.5312 15.8559 14.4802 15.7327 14.3894 15.6419C14.2985 15.551 14.1753 15.5 14.0469 15.5H3.39062C3.26216 15.5 3.13896 15.551 3.04812 15.6419C2.95728 15.7327 2.90625 15.8559 2.90625 15.9844V23.25C2.90625 23.3785 2.95728 23.5017 3.04812 23.5925C3.13896 23.6833 3.26216 23.7344 3.39062 23.7344ZM3.875 16.4688H13.5625V22.7656H3.875V16.4688Z" fill="#CC8700"/>
    <path d="M22.7656 23.7344H23.7344V24.7031H22.7656V23.7344Z" fill="#CC8700"/>
    <path d="M26.6406 23.7344H27.6094V24.7031H26.6406V23.7344Z" fill="#CC8700"/>
    <path d="M25.1875 27.125C24.9306 27.125 24.6842 27.0229 24.5025 26.8413C24.3208 26.6596 24.2188 26.4132 24.2188 26.1562H23.25C23.25 26.6701 23.4541 27.1629 23.8175 27.5263C24.1808 27.8896 24.6736 28.0938 25.1875 28.0938C25.7014 28.0938 26.1942 27.8896 26.5575 27.5263C26.9209 27.1629 27.125 26.6701 27.125 26.1562H26.1562C26.1562 26.4132 26.0542 26.6596 25.8725 26.8413C25.6908 27.0229 25.4444 27.125 25.1875 27.125Z" fill="#CC8700"/>
    <path d="M10.8984 9.75142L7.50781 7.81392C7.43411 7.77136 7.35049 7.74898 7.26539 7.74902C7.18028 7.74907 7.09669 7.77153 7.02302 7.81416C6.94936 7.85678 6.88823 7.91806 6.84579 7.99183C6.80334 8.0656 6.78108 8.14925 6.78125 8.23436V12.1094C6.78108 12.1945 6.80334 12.2781 6.84579 12.3519C6.88823 12.4256 6.94936 12.4869 7.02302 12.5295C7.09669 12.5722 7.18028 12.5946 7.26539 12.5947C7.35049 12.5947 7.43411 12.5723 7.50781 12.5298L10.8984 10.5923C10.9725 10.5499 11.0341 10.4887 11.0769 10.4149C11.1197 10.341 11.1423 10.2572 11.1423 10.1719C11.1423 10.0865 11.1197 10.0027 11.0769 9.92884C11.0341 9.855 10.9725 9.7938 10.8984 9.75142ZM7.75 11.2743V9.06942L9.67975 10.1719L7.75 11.2743Z" fill="#CC8700"/>
    <path d="M25.6714 15.0153C25.7635 15.0154 25.8538 14.9891 25.9315 14.9397C26.0093 14.8903 26.0713 14.8197 26.1103 14.7363C26.1494 14.6528 26.1638 14.56 26.152 14.4686C26.1401 14.3773 26.1025 14.2912 26.0434 14.2205L23.6215 11.3142C23.5785 11.2625 23.5251 11.2203 23.4648 11.1904C23.4045 11.1604 23.3386 11.1434 23.2713 11.1403C23.204 11.1362 23.1366 11.1467 23.0737 11.1711C23.0108 11.1956 22.954 11.2333 22.9071 11.2818L22.1965 11.9928L21.1953 10.8255C21.1485 10.7746 21.0917 10.734 21.0284 10.7062C20.9651 10.6784 20.8968 10.6641 20.8277 10.6641C20.7586 10.6641 20.6902 10.6784 20.6269 10.7062C20.5636 10.734 20.5068 10.7746 20.46 10.8255L17.5538 14.2161C17.4936 14.2864 17.4549 14.3725 17.4421 14.4642C17.4294 14.5559 17.4431 14.6493 17.4818 14.7334C17.5205 14.8174 17.5825 14.8887 17.6604 14.9387C17.7383 14.9886 17.8289 15.0152 17.9214 15.0153H25.6714ZM18.9745 14.0466L20.8277 11.8843L22.6809 14.0466H18.9745ZM23.2171 12.3421L24.6373 14.0466H23.9567L22.8286 12.7305L23.2171 12.3421Z" fill="#CC8700"/>
    <path d="M29.5469 0.96875H1.45312C1.32466 0.96875 1.20146 1.01978 1.11062 1.11062C1.01978 1.20146 0.96875 1.32466 0.96875 1.45312V25.1875C0.96875 25.316 1.01978 25.4392 1.11062 25.53C1.20146 25.6208 1.32466 25.6719 1.45312 25.6719H20.3685C20.4937 26.9075 21.0888 28.0478 22.0308 28.8571C22.9727 29.6665 24.1896 30.0832 25.43 30.021C26.6704 29.9588 27.8395 29.4226 28.6958 28.523C29.5521 27.6235 30.0302 26.4294 30.0312 25.1875V1.45312C30.0312 1.32466 29.9802 1.20146 29.8894 1.11062C29.7985 1.01978 29.6753 0.96875 29.5469 0.96875ZM25.1875 29.0625C24.4211 29.0625 23.6719 28.8352 23.0347 28.4094C22.3974 27.9837 21.9008 27.3785 21.6075 26.6704C21.3142 25.9623 21.2374 25.1832 21.387 24.4315C21.5365 23.6798 21.9055 22.9894 22.4475 22.4475C22.9894 21.9055 23.6798 21.5365 24.4315 21.387C25.1832 21.2374 25.9623 21.3142 26.6704 21.6075C27.3785 21.9008 27.9837 22.3974 28.4094 23.0347C28.8352 23.6719 29.0625 24.4211 29.0625 25.1875C29.0613 26.2149 28.6527 27.1998 27.9263 27.9263C27.1998 28.6527 26.2149 29.0613 25.1875 29.0625ZM20.9991 22.7656H16.4688V6.78125H27.125V20.7511C26.0352 20.2725 24.807 20.2134 23.6763 20.5853C22.5456 20.9571 21.5921 21.7336 20.9991 22.7656ZM29.0625 22.2938C28.7869 21.9258 28.4608 21.5986 28.0938 21.3217V6.29687C28.0938 6.16841 28.0427 6.04521 27.9519 5.95437C27.861 5.86353 27.7378 5.8125 27.6094 5.8125H15.9844C15.8559 5.8125 15.7327 5.86353 15.6419 5.95437C15.551 6.04521 15.5 6.16841 15.5 6.29687V23.25C15.5 23.3785 15.551 23.5017 15.6419 23.5925C15.7327 23.6833 15.8559 23.7344 15.9844 23.7344H20.567C20.4676 24.0496 20.401 24.3742 20.3685 24.7031H1.9375V4.84375H29.0625V22.2938ZM29.0625 3.875H1.9375V1.9375H29.0625V3.875Z" fill="#CC8700"/>
    <path d="M4.84375 17.4375H12.5938V18.4062H4.84375V17.4375Z" fill="#CC8700"/>
    <path d="M4.84375 19.375H12.5938V20.3438H4.84375V19.375Z" fill="#CC8700"/>
  </g>
  <defs>
    <clipPath id="clip0_203_12747">
      <rect width="31" height="31" fill="white"/>
    </clipPath>
  </defs>
</svg>